<svg xmlns="http://www.w3.org/2000/svg" xmlns:xlink="http://www.w3.org/1999/xlink" width="60" height="60" viewBox="0 0 60 60">
  <defs>
    <linearGradient id="download-pdf-a" x1="-24.295%" x2="84.627%" y1="-41.757%" y2="93.852%">
      <stop offset="0%" stop-color="#FF8171"/>
      <stop offset="100%" stop-color="#FF4436"/>
    </linearGradient>
    <linearGradient id="download-pdf-d" x1="-144.327%" x2="124.83%" y1="-214.54%" y2="177.691%">
      <stop offset="0%" stop-color="#FFF"/>
      <stop offset="100%" stop-color="#E1E2E1"/>
    </linearGradient>
    <path id="download-pdf-c" d="M22,0 L22,9 C22,9.55228475 22.4477153,10 23,10 L32.001,10 L22,0 Z"/>
    <filter id="download-pdf-b" width="141%" height="141%" x="-20.5%" y="-10.5%" filterUnits="objectBoundingBox">
      <feMorphology in="SourceAlpha" operator="dilate" radius=".05" result="shadowSpreadOuter1"/>
      <feOffset dy="1" in="shadowSpreadOuter1" result="shadowOffsetOuter1"/>
      <feGaussianBlur in="shadowOffsetOuter1" result="shadowBlurOuter1" stdDeviation=".5"/>
      <feComposite in="shadowBlurOuter1" in2="SourceAlpha" operator="out" result="shadowBlurOuter1"/>
      <feColorMatrix in="shadowBlurOuter1" values="0 0 0 0 0.55944409   0 0 0 0 0.229617442   0 0 0 0 0.201800737  0 0 0 1 0"/>
    </filter>
    <linearGradient id="download-pdf-e" x1="21.982%" x2="34.388%" y1="-15.416%" y2="50%">
      <stop offset="0%" stop-color="#FFF"/>
      <stop offset="100%" stop-color="#E1E2E1"/>
    </linearGradient>
    <path id="download-pdf-g" d="M1.41926395,13 L33.580736,13 C34.3645739,13 35,12.3645739 35,11.580736 L35,1.41926395 C35,0.635426115 34.3645739,-8.10122489e-16 33.580736,-6.66133815e-16 L1.41926395,0 C0.635426115,1.43988674e-16 2.1244536e-15,0.635426115 2.22044605e-15,1.41926395 L0,11.580736 C9.59924497e-17,12.3645739 0.635426115,13 1.41926395,13 Z"/>
    <filter id="download-pdf-f" width="105.7%" height="115.4%" x="-4.3%" y="-11.5%" filterUnits="objectBoundingBox">
      <feOffset dx="-1" dy="-1" in="SourceAlpha" result="shadowOffsetOuter1"/>
      <feColorMatrix in="shadowOffsetOuter1" values="0 0 0 0 0   0 0 0 0 0   0 0 0 0 0  0 0 0 0.05 0"/>
    </filter>
  </defs>
  <g fill="none" fill-rule="evenodd" transform="translate(11 9)">
    <g transform="translate(6)">
      <path fill="url(#download-pdf-a)" d="M0,1 L0,39 C6.76353751e-17,39.5522847 0.44771525,40 1,40 L31,40 C31.5522847,40 32,39.5522847 32,39 L32,10.4142136 C32,10.1489971 31.8946432,9.89464316 31.7071068,9.70710678 L22.2928932,0.292893219 C22.1053568,0.10535684 21.8510029,-4.87194788e-17 21.5857864,0 L1,0 C0.44771525,1.01453063e-16 -6.76353751e-17,0.44771525 0,1 Z"/>
      <g stroke-linecap="round" stroke-linejoin="round">
        <use fill="#000" filter="url(#download-pdf-b)" xlink:href="#download-pdf-c"/>
        <use fill="url(#download-pdf-d)" stroke="url(#download-pdf-d)" stroke-width=".1" xlink:href="#download-pdf-c"/>
      </g>
    </g>
    <path fill="url(#download-pdf-e)" fill-rule="nonzero" d="M21.1696429,12 C20.5915177,12 20.060268,12.3236606 19.7857143,12.7857143 C19.5133931,13.245536 19.4241074,13.7991074 19.4285714,14.4151789 C19.435268,15.6450891 19.8370537,17.1651789 20.5267857,18.6941966 C20.5468749,18.7366074 20.5781251,18.7767857 20.5982143,18.8191966 C20.4866074,19.1495537 20.4107143,19.4620537 20.2834823,19.7946429 C19.8883931,20.8281251 19.4151789,21.8348217 18.9196429,22.7790177 C18.0937503,23.0691966 17.3035714,23.3906251 16.622768,23.7566966 C15.8906251,24.1495537 15.2633931,24.5803571 14.7946429,25.0736606 C14.3258931,25.5691966 14,26.1562503 14,26.8125 C14,27.4799109 14.6004463,28 15.3281251,28 C15.9732143,28 16.5625,27.685268 17.1093749,27.2299109 C17.6562503,26.7723217 18.1763394,26.1584823 18.6808034,25.435268 C19.0334823,24.9308034 19.3571429,24.3214286 19.685268,23.7299109 C20.4687503,23.4709823 21.2901789,23.2366074 22.120536,23.0558034 C22.5513394,22.9642857 22.9598217,22.9263394 23.3839286,22.8571429 C23.4062503,22.877232 23.4196429,22.9017857 23.439732,22.9218749 C24.6741074,24.0937503 26.183036,24.9196429 27.8683034,24.9196429 C28.3638394,24.9196429 28.8437503,24.8593749 29.2678571,24.6093749 C29.6919646,24.3593749 30,23.8482143 30,23.2834823 C30,22.6674109 29.5714286,22.1562503 29.0513394,21.8883931 C28.5312503,21.620536 27.8906251,21.495536 27.1495537,21.439732 C26.1875,21.3683034 25.0357143,21.4665177 23.8392857,21.627232 C23.0468749,20.7767857 22.3683034,19.7678571 21.8370537,18.7031251 C22.2723217,17.3437503 22.6160714,16.0245537 22.7053571,14.939732 C22.7656251,14.1964286 22.7433034,13.5535714 22.5357143,13.0089286 C22.3281251,12.4620537 21.7946429,12 21.1696429,12 Z M21.1696429,13.1428571 C21.3593749,13.1428571 21.3660714,13.1450891 21.4665177,13.4107143 C21.5669646,13.6785714 21.6183034,14.1964286 21.564732,14.8459823 C21.5133931,15.4776789 21.3660714,16.2433034 21.1562503,17.0625 C20.814732,16.0669646 20.5758931,15.1116074 20.5714286,14.4084823 C20.5691966,13.9196429 20.6607143,13.5535714 20.7678571,13.3683034 C20.877232,13.185268 20.935268,13.1428571 21.1696429,13.1428571 Z M21.3571429,20.183036 C21.7053571,20.7700891 22.0982143,21.308036 22.5290177,21.8370537 C22.310268,21.8794646 22.1004463,21.8928571 21.8794646,21.939732 C21.3794646,22.0491074 20.8995537,22.2098217 20.4062503,22.3459823 C20.7388394,21.6428571 21.0714286,20.933036 21.3504463,20.2053571 C21.3526789,20.1964286 21.3549109,20.189732 21.3571429,20.183036 Z M26.0892857,22.564732 C26.4375,22.5558034 26.7678571,22.560268 27.064732,22.5803571 C27.7165177,22.6294646 28.2366074,22.7544646 28.5290177,22.9040177 C28.8214286,23.0558034 28.8571429,23.127232 28.8571429,23.2834823 C28.8571429,23.5245537 28.8236606,23.5446429 28.6875,23.625 C28.5513394,23.7053571 28.25,23.7767857 27.8683034,23.7767857 C26.8437503,23.7767857 25.8861606,23.2968749 24.9866074,22.6316966 C25.3660714,22.5982143 25.7388394,22.5736606 26.0892857,22.564732 Z M17.9486606,24.4308034 C17.8794646,24.5379463 17.814732,24.6785714 17.7433034,24.7790177 C17.2790177,25.4486606 16.8058034,25.995536 16.377232,26.3504463 C15.9486606,26.7075891 15.5803571,26.8571429 15.3281251,26.8571429 C15.1808034,26.8571429 15.1517857,26.8013394 15.1450891,26.7924109 C15.1517857,26.5245537 15.2901789,26.2142857 15.625,25.8593749 C15.9687503,25.497768 16.502232,25.1183034 17.1629463,24.7656251 C17.3883931,24.6428571 17.6964286,24.5468749 17.9486606,24.4308034 Z"/>
    <g transform="translate(0 29)">
      <use fill="#000" filter="url(#download-pdf-f)" xlink:href="#download-pdf-g"/>
      <use fill="#4A4C54" xlink:href="#download-pdf-g"/>
      <path fill="#FFF" d="M12.490625,4.96166667 C12.490625,5.57700308 12.2675022,6.17066381 11.82125,6.74266667 C11.5849988,7.03733481 11.2328148,7.2778324 10.7646875,7.46416667 C10.2965602,7.65050093 9.74312819,7.74366667 9.104375,7.74366667 L7.713125,7.74366667 L7.713125,11.2926667 L5.46875,11.2926667 L5.46875,2.16666667 L9.104375,2.16666667 C10.1718803,2.16666667 11.003122,2.43966394 11.598125,2.98566667 C12.193128,3.5316694 12.490625,4.19032948 12.490625,4.96166667 Z M7.713125,6.05366667 L9.104375,6.05366667 C9.44562671,6.05366667 9.71468652,5.954001 9.9115625,5.75466667 C10.1084385,5.55533234 10.206875,5.29316829 10.206875,4.96816667 C10.206875,4.64316504 10.106251,4.37666771 9.905,4.16866667 C9.70374899,3.96066563 9.43687666,3.85666667 9.104375,3.85666667 L7.713125,3.85666667 L7.713125,6.05366667 Z M16.086875,9.60266667 L17.084375,9.60266667 C17.9418793,9.60266667 18.6156225,9.34266927 19.105625,8.82266667 C19.5956274,8.30266407 19.840625,7.60500438 19.840625,6.72966667 C19.840625,5.85432896 19.5956274,5.15666927 19.105625,4.63666667 C18.6156225,4.11666407 17.9418793,3.85666667 17.084375,3.85666667 L16.086875,3.85666667 L16.086875,9.60266667 Z M17.084375,2.16666667 C18.5543824,2.16666667 19.7618703,2.58916244 20.706875,3.43416667 C21.6518797,4.27917089 22.124375,5.37549326 22.124375,6.72316667 C22.124375,8.07084007 21.6518797,9.16932909 20.706875,10.0186667 C19.7618703,10.8680042 18.5543824,11.2926667 17.084375,11.2926667 L13.8425,11.2926667 L13.8425,2.16666667 L17.084375,2.16666667 Z M23.541875,11.2926667 L23.541875,2.16666667 L29.54,2.16666667 L29.54,3.85666667 L25.78625,3.85666667 L25.78625,5.81966667 L28.595,5.81966667 L28.595,7.50966667 L25.78625,7.50966667 L25.78625,11.2926667 L23.541875,11.2926667 Z"/>
    </g>
  </g>
</svg>
