<svg xmlns="http://www.w3.org/2000/svg" xmlns:xlink="http://www.w3.org/1999/xlink" width="38" height="42" viewBox="0 0 38 42">
    <defs>
        <linearGradient id="a" x1="2.792%" x2="56.67%" y1="0%" y2="54.903%">
            <stop offset="0%" stop-color="#70727B"/>
            <stop offset="100%" stop-color="#4A4C54"/>
        </linearGradient>
        <linearGradient id="b" x1="11.672%" x2="95.775%" y1="11.201%" y2="95.732%">
            <stop offset="0%" stop-color="#FFF"/>
            <stop offset="100%" stop-color="#E1E2E1"/>
        </linearGradient>
        <linearGradient id="e" x1="-24.295%" x2="84.627%" y1="-41.757%" y2="93.852%">
            <stop offset="0%" stop-color="#FF8171"/>
            <stop offset="100%" stop-color="#FF4436"/>
        </linearGradient>
        <path id="d" d="M1.29 42h29.42A1.29 1.29 0 0 0 32 40.71v-9.42A1.29 1.29 0 0 0 30.71 30H1.29A1.29 1.29 0 0 0 0 31.29v9.42C0 41.422.578 42 1.29 42z"/>
        <filter id="c" width="106.2%" height="116.7%" x="-4.7%" y="-12.5%" filterUnits="objectBoundingBox">
            <feOffset dx="-1" dy="-1" in="SourceAlpha" result="shadowOffsetOuter1"/>
            <feColorMatrix in="shadowOffsetOuter1" values="0 0 0 0 0 0 0 0 0 0 0 0 0 0 0 0 0 0 0.05 0"/>
        </filter>
    </defs>
    <g fill="none" fill-rule="evenodd">
        <path fill="url(#a)" d="M22.294 0H.5a.5.5 0 0 0-.5.5v39a.5.5 0 0 0 .5.5h34.241a.2.2 0 0 0 .2-.2V13.143L22.294 0z" transform="translate(3)"/>
        <path d="M25.294 12.778H37.66l5.34 5.75-11.67-.64z" opacity=".3" style="mix-blend-mode:multiply"/>
        <path fill="url(#b)" stroke="url(#b)" stroke-linecap="round" stroke-linejoin="round" stroke-width=".2" d="M34.941 13.07H23.657c-.748 0-1.363-.634-1.363-1.41V0l12.647 13.07z" transform="translate(3)"/>
        <path fill="url(#b)" d="M9 14h10v1.2H9zM9 18h23v1.2H9zM9 22h23v1.2H9z"/>
        <g>
            <use fill="#000" filter="url(#c)" xlink:href="#d"/>
            <use fill="url(#e)" xlink:href="#d"/>
        </g>
        <text fill="#FFF" font-family="Poppins" font-size="10" font-weight="bold" letter-spacing=".375">
            <tspan x="3" y="42">.CSV</tspan>
        </text>
    </g>
</svg>
