<svg xmlns="http://www.w3.org/2000/svg" xmlns:xlink="http://www.w3.org/1999/xlink" width="38" height="42" viewBox="0 0 38 42">
    <defs>
        <linearGradient id="a" x1="-24.295%" x2="84.627%" y1="-41.757%" y2="93.852%">
            <stop offset="0%" stop-color="#FF8171"/>
            <stop offset="100%" stop-color="#FF4436"/>
        </linearGradient>
        <linearGradient id="b" x1="11.672%" x2="95.775%" y1="11.201%" y2="95.732%">
            <stop offset="0%" stop-color="#FFF"/>
            <stop offset="100%" stop-color="#E1E2E1"/>
        </linearGradient>
        <linearGradient id="c" x1="21.982%" x2="34.388%" y1="-15.416%" y2="50%">
            <stop offset="0%" stop-color="#FFF"/>
            <stop offset="100%" stop-color="#E1E2E1"/>
        </linearGradient>
        <path id="e" d="M1.29 42h29.42A1.29 1.29 0 0 0 32 40.71v-9.42A1.29 1.29 0 0 0 30.71 30H1.29A1.29 1.29 0 0 0 0 31.29v9.42C0 41.422.578 42 1.29 42z"/>
        <filter id="d" width="106.2%" height="116.7%" x="-4.7%" y="-12.5%" filterUnits="objectBoundingBox">
            <feOffset dx="-1" dy="-1" in="SourceAlpha" result="shadowOffsetOuter1"/>
            <feColorMatrix in="shadowOffsetOuter1" values="0 0 0 0 0 0 0 0 0 0 0 0 0 0 0 0 0 0 0.05 0"/>
        </filter>
    </defs>
    <g fill="none" fill-rule="evenodd">
        <path fill="url(#a)" d="M22.294 0H.5a.5.5 0 0 0-.5.5v39a.5.5 0 0 0 .5.5h34.241a.2.2 0 0 0 .2-.2V13.143L22.294 0z" transform="translate(3)"/>
        <path d="M25.294 12.778H37.66l5.34 5.75-11.67-.64z" opacity=".3" style="mix-blend-mode:multiply"/>
        <path fill="url(#b)" stroke="url(#b)" stroke-linecap="round" stroke-linejoin="round" stroke-width=".2" d="M34.941 13.07H23.657c-.748 0-1.363-.634-1.363-1.41V0l12.647 13.07z" transform="translate(3)"/>
        <path fill="url(#c)" fill-rule="nonzero" d="M19.17 12c-.578 0-1.11.324-1.384.786-.273.46-.362 1.013-.357 1.63.006 1.23.408 2.75 1.098 4.278.02.043.051.083.071.125-.111.33-.187.643-.315.976a27.957 27.957 0 0 1-1.363 2.984c-.826.29-1.616.612-2.297.978-.732.393-1.36.823-1.828 1.317-.47.495-.795 1.082-.795 1.738 0 .668.6 1.188 1.328 1.188.645 0 1.235-.315 1.781-.77.547-.458 1.067-1.072 1.572-1.795.352-.504.676-1.114 1.004-1.705a24.256 24.256 0 0 1 2.436-.674c.43-.092.839-.13 1.263-.199.022.02.036.045.056.065 1.234 1.172 2.743 1.998 4.428 1.998.496 0 .976-.06 1.4-.31.424-.25.732-.762.732-1.327 0-.616-.429-1.127-.949-1.395-.52-.267-1.16-.392-1.901-.448-.962-.072-2.114.027-3.31.187a12.502 12.502 0 0 1-2.003-2.924c.435-1.36.78-2.678.868-3.763.06-.744.038-1.386-.17-1.931-.207-.547-.74-1.009-1.365-1.009zm0 1.143c.19 0 .196.002.297.268.1.268.151.785.098 1.435-.052.632-.199 1.397-.409 2.216-.341-.995-.58-1.95-.585-2.654-.002-.488.09-.854.197-1.04.11-.183.167-.225.402-.225zm.187 7.04c.348.587.741 1.125 1.172 1.654-.219.042-.429.056-.65.103-.5.11-.98.27-1.473.406.333-.703.665-1.413.944-2.14a.281.281 0 0 1 .007-.023zm4.732 2.382c.349-.01.679-.005.976.015.652.05 1.172.174 1.464.324.292.152.328.223.328.38 0 .24-.033.26-.17.341-.136.08-.437.152-.819.152-1.024 0-1.982-.48-2.881-1.145.38-.034.752-.058 1.102-.067zm-8.14 1.866c-.07.107-.134.248-.206.348-.464.67-.937 1.217-1.366 1.571-.428.358-.797.507-1.049.507-.147 0-.176-.056-.183-.065.007-.267.145-.578.48-.933.344-.361.877-.74 1.538-1.093.225-.123.533-.22.786-.335z"/>
        <g>
            <use fill="#000" filter="url(#d)" xlink:href="#e"/>
            <use fill="#4A4C54" xlink:href="#e"/>
        </g>
        <text fill="#FFF" font-family="Poppins" font-size="10" font-weight="bold" letter-spacing=".375">
            <tspan x="3" y="42">PDF</tspan>
        </text>
    </g>
</svg>
