<svg xmlns="http://www.w3.org/2000/svg" xmlns:xlink="http://www.w3.org/1999/xlink" width="73" height="70" viewBox="0 0 73 70">
    <defs>
        <linearGradient id="a" x1="23.756%" x2="50%" y1="22.355%" y2="50%">
            <stop offset="0%"/>
            <stop offset="100%" stop-opacity="0"/>
        </linearGradient>
        <linearGradient id="d" x1="11.672%" x2="95.775%" y1="11.201%" y2="95.732%">
            <stop offset="0%" stop-color="#FF7865"/>
            <stop offset="100%" stop-color="#FF4335"/>
        </linearGradient>
        <path id="c" d="M0 10.8h48V0H0z"/>
        <filter id="b" width="116.7%" height="174.1%" x="-4.2%" y="-18.5%" filterUnits="objectBoundingBox">
            <feOffset dx="2" dy="2" in="SourceAlpha" result="shadowOffsetOuter1"/>
            <feGaussianBlur in="shadowOffsetOuter1" result="shadowBlurOuter1" stdDeviation="1"/>
            <feColorMatrix in="shadowBlurOuter1" values="0 0 0 0 0 0 0 0 0 0 0 0 0 0 0 0 0 0 0.189085145 0"/>
        </filter>
        <linearGradient id="g" x1="2.792%" x2="56.67%" y1="0%" y2="54.903%">
            <stop offset="0%" stop-color="#70727B"/>
            <stop offset="100%" stop-color="#4A4C54"/>
        </linearGradient>
        <path id="f" d="M0 46.8h48v-36H0z"/>
        <filter id="e" width="116.7%" height="122.2%" x="-4.2%" y="-5.6%" filterUnits="objectBoundingBox">
            <feOffset dx="2" dy="2" in="SourceAlpha" result="shadowOffsetOuter1"/>
            <feGaussianBlur in="shadowOffsetOuter1" result="shadowBlurOuter1" stdDeviation="1"/>
            <feColorMatrix in="shadowBlurOuter1" values="0 0 0 0 0 0 0 0 0 0 0 0 0 0 0 0 0 0 0.189085145 0"/>
        </filter>
        <linearGradient id="j" x1="11.672%" x2="95.775%" y1="11.201%" y2="95.732%">
            <stop offset="0%" stop-color="#FFF"/>
            <stop offset="100%" stop-color="#E1E2E1"/>
        </linearGradient>
        <path id="i" d="M18 6c0 3.333-2.667 6-6 6S6 9.333 6 6s2.667-6 6-6 6 2.667 6 6"/>
        <filter id="h" width="166.7%" height="166.7%" x="-16.7%" y="-16.7%" filterUnits="objectBoundingBox">
            <feOffset dx="2" dy="2" in="SourceAlpha" result="shadowOffsetOuter1"/>
            <feGaussianBlur in="shadowOffsetOuter1" result="shadowBlurOuter1" stdDeviation="1"/>
            <feColorMatrix in="shadowBlurOuter1" values="0 0 0 0 0 0 0 0 0 0 0 0 0 0 0 0 0 0 0.189085145 0"/>
        </filter>
        <path id="l" d="M25.2 21.217S21.7 14.4 12.6 14.4 0 21.217 0 21.217V25.2h25.2v-3.983z"/>
        <filter id="k" width="131.7%" height="174.1%" x="-7.9%" y="-18.5%" filterUnits="objectBoundingBox">
            <feOffset dx="2" dy="2" in="SourceAlpha" result="shadowOffsetOuter1"/>
            <feGaussianBlur in="shadowOffsetOuter1" result="shadowBlurOuter1" stdDeviation="1"/>
            <feColorMatrix in="shadowBlurOuter1" values="0 0 0 0 0 0 0 0 0 0 0 0 0 0 0 0 0 0 0.189085145 0"/>
        </filter>
    </defs>
    <g fill="none" fill-rule="evenodd">
        <path fill="url(#a)" d="M0 46.8L48 0l48 48v48H53.681z" opacity=".075"/>
        <g>
            <use fill="#000" filter="url(#b)" xlink:href="#c"/>
            <use fill="url(#d)" xlink:href="#c"/>
        </g>
        <g>
            <use fill="#000" filter="url(#e)" xlink:href="#f"/>
            <use fill="url(#g)" xlink:href="#f"/>
        </g>
        <path fill="#FFF" d="M7.183 3.078a2.4 2.4 0 1 1 0 4.8 2.4 2.4 0 0 1 0-4.8M14.614 3.078a2.4 2.4 0 1 1-.002 4.802 2.4 2.4 0 0 1 .002-4.802M41.502 7.878h-14.77c-1.222 0-2.215-1.075-2.215-2.4s.993-2.4 2.216-2.4h14.769c1.224 0 2.215 1.075 2.215 2.4s-.99 2.4-2.215 2.4"/>
        <g>
            <g transform="translate(12 15.6)">
                <use fill="#000" filter="url(#h)" xlink:href="#i"/>
                <use fill="url(#j)" xlink:href="#i"/>
            </g>
            <g transform="translate(12 15.6)">
                <use fill="#000" filter="url(#k)" xlink:href="#l"/>
                <use fill="url(#j)" xlink:href="#l"/>
            </g>
        </g>
    </g>
</svg>
