<svg width="34" height="34" viewBox="0 0 34 34" xmlns="http://www.w3.org/2000/svg" xmlns:xlink="http://www.w3.org/1999/xlink"><title>icn/footer-mail-us</title><defs><linearGradient x1="-21.919%" y1="-61.461%" x2="44.106%" y2="43.362%" id="a"><stop stop-color="#FF7865" offset="0%"/><stop stop-color="#FF4335" offset="100%"/></linearGradient><linearGradient x1="11.672%" y1="11.201%" x2="95.775%" y2="95.732%" id="d"><stop stop-color="#FFF" offset="0%"/><stop stop-color="#E1E2E1" offset="100%"/></linearGradient><path id="c" d="M4.966 22.614h17.996v-15H4.966z"/><filter x="-13.9%" y="-16.7%" width="138.9%" height="146.7%" filterUnits="objectBoundingBox" id="b"><feOffset dx="1" dy="1" in="SourceAlpha" result="shadowOffsetOuter1"/><feGaussianBlur stdDeviation="1" in="shadowOffsetOuter1" result="shadowBlurOuter1"/><feColorMatrix values="0 0 0 0 0 0 0 0 0 0 0 0 0 0 0 0 0 0 0.189085145 0" in="shadowBlurOuter1"/></filter><linearGradient x1="11.672%" y1="11.201%" x2="95.374%" y2="95.33%" id="e"><stop stop-color="#FF7865" offset="0%"/><stop stop-color="#FF4335" offset="100%"/></linearGradient><path d="M0 18.352V11.23c0-.912.445-1.766 1.191-2.289L13.964 0l12.774 8.942a2.792 2.792 0 0 1 1.191 2.29v14.951a1.8 1.8 0 0 1-1.797 1.802L1.8 28.032c-.994 0-1.8-.807-1.8-1.801v-7.879z" id="f"/><linearGradient x1="63.771%" y1="48.656%" x2="35.581%" y2="81.019%" id="g"><stop stop-color="#EEE" offset="0%"/><stop stop-color="#D8D8D8" offset="100%"/></linearGradient></defs><g fill="none" fill-rule="evenodd"><path d="M2.793 27.628A2.793 2.793 0 0 1 0 24.834V11.23c0-.912.445-1.766 1.191-2.289L13.964 0l12.774 8.942a2.792 2.792 0 0 1 1.191 2.29v13.603a2.794 2.794 0 0 1-2.793 2.794H2.793z" fill="url(#a)" transform="translate(3 3)"/><g transform="translate(3 3)"><use fill="#000" filter="url(#b)" xlink:href="#c"/><use fill="url(#d)" xlink:href="#c"/></g><path d="M1.8 28.032c-.994 0-1.8-.807-1.8-1.801V11.869l13.964 9.078L27.93 11.87v14.313a1.8 1.8 0 0 1-1.797 1.8l-24.333.05z" fill="url(#e)" transform="translate(3 3)"/><path d="M11 16v-1h13v1H11zm0 2v-1h8v1h-8z" fill="#4A4C54"/><g transform="translate(3 3)"><mask id="h" fill="#fff"><use xlink:href="#f"/></mask><path fill-opacity=".3" fill="url(#g)" mask="url(#h)" d="M14 21l11 7h3.5V11.492z"/></g></g></svg>