<svg width="64" height="64" viewBox="0 0 64 64" xmlns="http://www.w3.org/2000/svg" xmlns:xlink="http://www.w3.org/1999/xlink"><title>logo/fundamental-icon</title><defs><linearGradient x1="0%" y1="0%" y2="100%" id="b"><stop stop-color="#FF6155" offset="0%"/><stop stop-color="#EC3022" offset="100%"/></linearGradient><path id="a" d="M0 64h64V0H0z"/><linearGradient x1="55.123%" y1="0%" x2="55.123%" y2="56.679%" id="c"><stop offset="0%"/><stop stop-opacity="0" offset="100%"/></linearGradient><linearGradient x1="55.123%" y1="-10.714%" x2="55.123%" y2="39.042%" id="e"><stop offset="0%"/><stop stop-opacity="0" offset="100%"/></linearGradient><linearGradient x1="282.648%" y1="304.395%" x2="32.86%" y2="47.302%" id="h"><stop offset="0%"/><stop stop-color="#FFF" offset="100%"/></linearGradient><path d="M46.91 16a6.545 6.545 0 1 1-13.092 0 6.545 6.545 0 0 1 13.091 0zm0 18.182a6.546 6.546 0 1 1-13.092 0 6.546 6.546 0 0 1 13.091 0zM9.454 54.545V9.455h17.818v45.09H9.455z" id="g"/><filter x="-2.7%" y="-2.2%" width="110.7%" height="108.9%" filterUnits="objectBoundingBox" id="f"><feOffset dx="1" dy="1" in="SourceAlpha" result="shadowOffsetOuter1"/><feGaussianBlur stdDeviation=".5" in="shadowOffsetOuter1" result="shadowBlurOuter1"/><feColorMatrix values="0 0 0 0 0 0 0 0 0 0 0 0 0 0 0 0 0 0 0.15 0" in="shadowBlurOuter1"/></filter></defs><g fill="none" fill-rule="evenodd"><mask id="d" fill="#fff"><use xlink:href="#a"/></mask><use fill="url(#b)" xlink:href="#a"/><path fill-opacity=".3" fill="url(#c)" mask="url(#d)" transform="rotate(-45 40.932 46.75)" d="M13.14 29.804l44.506-19.08.085 12.765 11.025.015v59.273H13.109z"/><path fill-opacity=".2" fill="url(#e)" mask="url(#d)" transform="rotate(-45 56.357 50.176)" d="M49.929 27.266h12.856v45.818H49.929z"/><use fill="#000" filter="url(#f)" xlink:href="#g"/><use fill="url(#h)" xlink:href="#g"/></g></svg>