<svg width="24" height="24" viewBox="0 0 24 24" xmlns="http://www.w3.org/2000/svg"><title>icn/raidio-check</title><g fill="none" fill-rule="evenodd"><path d="M12 19.625a7.625 7.625 0 1 0 0-15.25 7.625 7.625 0 0 0 0 15.25z" fill="#FFF"/><path d="M12 20.75a8.75 8.75 0 1 1 0-17.5 8.75 8.75 0 0 1 0 17.5zm0-1.5a7.25 7.25 0 1 0 0-14.5 7.25 7.25 0 0 0 0 14.5z" fill="#FF4335" fill-rule="nonzero"/><path fill="#FF4335" fill-rule="nonzero" d="M15.86 8l-5.465 5.648-2.256-2.322L7 12.502 10.397 16 17 9.176z"/></g></svg>