<svg xmlns="http://www.w3.org/2000/svg" xmlns:xlink="http://www.w3.org/1999/xlink" width="669" height="102" viewBox="0 0 669 102">
  <defs>
    <linearGradient id="fundamental-b" x1="0%" y1="0%" y2="100%">
      <stop offset="0%" stop-color="#FF6155"/>
      <stop offset="100%" stop-color="#EC3022"/>
    </linearGradient>
    <polygon id="fundamental-a" points="0 102 102 102 102 0 0 0"/>
    <linearGradient id="fundamental-c" x1="55.123%" x2="55.123%" y1="0%" y2="56.679%">
      <stop offset="0%"/>
      <stop offset="100%" stop-opacity="0"/>
    </linearGradient>
    <linearGradient id="fundamental-e" x1="55.123%" x2="55.123%" y1="-10.714%" y2="39.042%">
      <stop offset="0%"/>
      <stop offset="100%" stop-opacity="0"/>
    </linearGradient>
    <linearGradient id="fundamental-h" x1="282.648%" x2="32.86%" y1="304.395%" y2="47.302%">
      <stop offset="0%"/>
      <stop offset="100%" stop-color="#FFF"/>
    </linearGradient>
    <path id="fundamental-g" d="M74.7613636,25.5 C74.7613636,31.2617904 70.0904652,35.9318182 64.3295455,35.9318182 C58.567755,35.9318182 53.8977273,31.2617904 53.8977273,25.5 C53.8977273,19.7382096 58.567755,15.0681818 64.3295455,15.0681818 C70.0904652,15.0681818 74.7613636,19.7382096 74.7613636,25.5 Z M74.7613636,54.4772727 C74.7613636,60.2381925 70.0904652,64.9090909 64.3295455,64.9090909 C58.567755,64.9090909 53.8977273,60.2381925 53.8977273,54.4772727 C53.8977273,48.7154823 58.567755,44.0454545 64.3295455,44.0454545 C70.0904652,44.0454545 74.7613636,48.7154823 74.7613636,54.4772727 Z M15.0681818,86.9318182 L15.0681818,15.0681818 L43.4659091,15.0681818 L43.4659091,86.9318182 L15.0681818,86.9318182 Z"/>
    <filter id="fundamental-f" width="120.1%" height="116.7%" x="-5%" y="-4.2%" filterUnits="objectBoundingBox">
      <feOffset dx="3" dy="3" in="SourceAlpha" result="shadowOffsetOuter1"/>
      <feGaussianBlur in="shadowOffsetOuter1" result="shadowBlurOuter1" stdDeviation="1.5"/>
      <feColorMatrix in="shadowBlurOuter1" values="0 0 0 0 0   0 0 0 0 0   0 0 0 0 0  0 0 0 0.15 0"/>
    </filter>
  </defs>
  <g fill="none" fill-rule="evenodd">
    <path fill="#4A4C54" d="M660.475725,79.1281607 L667.423042,79.1281607 L667.423042,23.046375 L660.475725,23.046375 L660.475725,79.1281607 Z M632.497476,69.654 C635.270715,66.8253214 636.657793,63.0604286 636.657793,58.3620536 C636.657793,53.6636786 635.270715,49.8996964 632.497476,47.0701071 C629.72332,44.2414286 626.390479,42.8261786 622.497119,42.8261786 C618.603759,42.8261786 615.269084,44.1904286 612.495845,46.9189286 C609.721688,49.6465179 608.335527,53.3604107 608.335527,58.0587857 C608.335527,62.7571607 609.734531,66.5730536 612.534374,69.5028214 C615.3333,72.4335 618.666141,73.8979286 622.534732,73.8979286 C626.402405,73.8979286 629.72332,72.4845 632.497476,69.654 Z M606.961292,73.7085 C603.144075,69.6421607 601.235925,64.4383393 601.235925,58.0970357 C601.235925,51.7566429 603.131232,46.6284107 606.92368,42.7123393 C610.714293,38.7971786 615.485585,36.8391429 621.237557,36.8391429 C624.798825,36.8391429 627.916999,37.6724464 630.589326,39.3399643 C633.260736,41.0074821 635.283559,43.1795357 636.657793,45.8579464 L636.657793,37.5212679 L643.681253,37.5212679 L643.681253,79.12725 L636.657793,79.12725 L636.657793,70.6393929 C635.283559,73.3678929 633.260736,75.5781964 630.589326,77.2703036 C627.916999,78.9642321 624.798825,79.809375 621.237557,79.809375 C615.536959,79.809375 610.77851,77.7766607 606.961292,73.7085 Z M585.281773,73.5190714 L591.00714,73.5190714 L591.00714,79.12725 L583.983681,79.12725 C576.705189,79.12725 573.066861,75.5654464 573.066861,68.4409286 L573.066861,43.1285357 L567.646981,43.1285357 L567.646981,37.5212679 L573.066861,37.5212679 L573.066861,27.2138036 L580.090321,27.2138036 L580.090321,37.5212679 L590.930998,37.5212679 L590.930998,43.1285357 L580.090321,43.1285357 L580.090321,68.4409286 C580.090321,70.3115357 580.471951,71.623875 581.235211,72.3825 C581.998471,73.1402143 583.347019,73.5190714 585.281773,73.5190714 Z M525.201653,37.5212679 L525.201653,44.2660179 C528.051952,39.315375 532.606743,36.8391429 538.866943,36.8391429 C543.496958,36.8391429 547.365549,38.3673214 550.47088,41.4236786 C553.574375,44.4818571 555.127499,48.8387143 555.127499,54.4969821 L555.127499,79.12725 L548.256325,79.12725 L548.256325,55.6344643 C548.256325,51.440625 547.238033,48.2576786 545.203285,46.0847143 C543.166702,43.9126607 540.35585,42.8261786 536.767978,42.8261786 C533.179188,42.8261786 530.354576,43.9126607 528.293223,46.0847143 C526.232788,48.2576786 525.201653,51.440625 525.201653,55.6344643 L525.201653,79.12725 L518.255253,79.12725 L518.255253,37.5212679 L525.201653,37.5212679 Z M493.216289,46.1220536 C490.721934,43.7232321 487.630364,42.5229107 483.940662,42.5229107 C480.250044,42.5229107 477.185078,43.6977321 474.742095,46.047375 C472.299113,48.3961071 470.949647,51.6173036 470.695533,55.7091429 L497.033507,55.7091429 C496.982134,51.7193036 495.709728,48.5226964 493.216289,46.1220536 Z M483.82599,79.809375 C477.820822,79.809375 472.934857,77.8395 469.169013,73.8979286 C465.402252,69.9572679 463.519788,64.7543571 463.519788,58.2864643 C463.519788,51.8194821 465.427938,46.6284107 469.245156,42.7123393 C473.062373,38.7971786 478.011637,36.8391429 484.093865,36.8391429 C490.174258,36.8391429 495.060223,38.6951786 498.750842,42.4090714 C502.440543,46.1220536 504.285394,50.8595893 504.285394,56.6189464 C504.285394,58.0851964 504.182647,59.4494464 503.979907,60.7116964 L470.61939,60.7116964 C470.822131,64.8545357 472.133067,68.1267321 474.55128,70.5255536 C476.967659,72.9261964 480.059229,74.1256071 483.82599,74.1256071 C486.676289,74.1256071 489.080741,73.4944821 491.040265,72.2304107 C492.99887,70.9690714 494.438239,69.3015536 495.353784,67.2287679 L502.835017,67.2287679 C501.511238,70.8670714 499.234301,73.8733393 496.002372,76.2475714 C492.770443,78.6227143 488.711955,79.809375 483.82599,79.809375 Z M390.004641,37.5212679 L390.004641,44.2660179 C392.85494,39.315375 397.409731,36.8391429 403.669931,36.8391429 C406.876173,36.8391429 409.776928,37.6096071 412.372195,39.1505357 C414.96838,40.692375 416.926986,42.9281786 418.250765,45.8579464 C419.777285,43.0283571 421.850563,40.8180536 424.472435,39.226125 C427.093389,37.6351071 430.08313,36.8391429 433.442574,36.8391429 C438.175337,36.8391429 442.093466,38.3673214 445.198797,41.4236786 C448.302292,44.4818571 449.855416,48.8387143 449.855416,54.4969821 L449.855416,79.12725 L442.985159,79.12725 L442.985159,55.6344643 C442.985159,51.440625 441.954024,48.2576786 439.893589,46.0847143 C437.832237,43.9126607 435.01955,42.8261786 431.457365,42.8261786 C427.894262,42.8261786 425.08341,43.9126607 423.022057,46.0847143 C420.960705,48.2576786 419.930488,51.440625 419.930488,55.6344643 L419.930488,79.12725 L413.059313,79.12725 L413.059313,55.6344643 C413.059313,51.440625 412.041021,48.2576786 410.006273,46.0847143 C407.96969,43.9126607 405.157921,42.8261786 401.570048,42.8261786 C397.982176,42.8261786 395.157564,43.9126607 393.096211,46.0847143 C391.035776,48.2576786 390.004641,51.440625 390.004641,55.6344643 L390.004641,79.12725 L383.058242,79.12725 L383.058242,37.5212679 L390.004641,37.5212679 Z M355.079075,69.654 C357.852315,66.8253214 359.24031,63.0604286 359.24031,58.3620536 C359.24031,53.6636786 357.852315,49.8996964 355.079075,47.0701071 C352.304919,44.2414286 348.972078,42.8261786 345.078718,42.8261786 C341.185359,42.8261786 337.8516,44.1904286 335.078361,46.9189286 C332.303287,49.6465179 330.917127,53.3604107 330.917127,58.0587857 C330.917127,62.7571607 332.317048,66.5730536 335.115974,69.5028214 C337.9149,72.4335 341.248658,73.8979286 345.117248,73.8979286 C348.984004,73.8979286 352.304919,72.4845 355.079075,69.654 Z M329.543809,73.7085 C325.726592,69.6421607 323.817524,64.4383393 323.817524,58.0970357 C323.817524,51.7566429 325.713748,46.6284107 329.505279,42.7123393 C333.295892,38.7971786 338.067185,36.8391429 343.819156,36.8391429 C347.381342,36.8391429 350.498598,37.6724464 353.170925,39.3399643 C355.842335,41.0074821 357.866075,43.1795357 359.24031,45.8579464 L359.24031,37.5212679 L366.262852,37.5212679 L366.262852,79.12725 L359.24031,79.12725 L359.24031,70.6393929 C357.866075,73.3678929 355.842335,75.5781964 353.170925,77.2703036 C350.498598,78.9642321 347.381342,79.809375 343.819156,79.809375 C338.118558,79.809375 333.360109,77.7766607 329.543809,73.7085 Z M298.587745,69.654 C301.360984,66.8253214 302.748063,63.0604286 302.748063,58.3620536 C302.748063,53.6636786 301.360984,49.8996964 298.587745,47.0701071 C295.813589,44.2414286 292.480748,42.8261786 288.587388,42.8261786 C284.694028,42.8261786 281.359353,44.1904286 278.586114,46.9189286 C275.811957,49.6465179 274.425796,53.3604107 274.425796,58.0587857 C274.425796,62.7571607 275.825718,66.5730536 278.624644,69.5028214 C281.423569,72.4335 284.75641,73.8979286 288.625001,73.8979286 C292.492674,73.8979286 295.813589,72.4845 298.587745,69.654 Z M273.051562,73.7085 C269.234344,69.6421607 267.326194,64.4383393 267.326194,58.0970357 C267.326194,51.7566429 269.221501,46.6284107 273.013949,42.7123393 C276.804562,38.7971786 281.575855,36.8391429 287.326908,36.8391429 C290.889094,36.8391429 294.007268,37.6724464 296.679595,39.3399643 C299.351005,41.0074821 301.373828,43.1795357 302.748063,45.8579464 L302.748063,23.046375 L309.771522,23.046375 L309.771522,79.12725 L302.748063,79.12725 L302.748063,70.6393929 C301.373828,73.3678929 299.351005,75.5781964 296.679595,77.2703036 C294.007268,78.9642321 290.889094,79.809375 287.326908,79.809375 C281.627228,79.809375 276.868779,77.7766607 273.051562,73.7085 Z M223.736894,37.5212679 L223.736894,44.2660179 C226.586275,39.315375 231.141983,36.8391429 237.401266,36.8391429 C242.032199,36.8391429 245.899872,38.3673214 249.005202,41.4236786 C252.108698,44.4818571 253.661822,48.8387143 253.661822,54.4969821 L253.661822,79.12725 L246.791565,79.12725 L246.791565,55.6344643 C246.791565,51.440625 245.773273,48.2576786 243.737608,46.0847143 C241.701942,43.9126607 238.890173,42.8261786 235.302301,42.8261786 C231.714428,42.8261786 228.889816,43.9126607 226.828463,46.0847143 C224.767111,48.2576786 223.736894,51.440625 223.736894,55.6344643 L223.736894,79.12725 L216.789576,79.12725 L216.789576,37.5212679 L223.736894,37.5212679 Z M193.048705,37.5212679 L199.995105,37.5212679 L199.995105,79.12725 L193.048705,79.12725 L193.048705,72.4580893 C190.248862,77.3595536 185.694071,79.809375 179.383415,79.809375 C174.752482,79.809375 170.883892,78.2821071 167.780396,75.2239286 C164.675065,72.1675714 163.122859,67.8353036 163.122859,62.227125 L163.122859,37.5212679 L169.994033,37.5212679 L169.994033,61.0905536 C169.994033,65.2343036 171.024251,68.4035893 173.085603,70.6011429 C175.146956,72.7996071 177.958725,73.8979286 181.52091,73.8979286 C185.083096,73.8979286 187.895783,72.7996071 189.957135,70.6011429 C192.018487,68.4035893 193.048705,65.2343036 193.048705,61.0905536 L193.048705,37.5212679 Z M150.222664,37.5212679 L150.222664,43.1285357 L141.443339,43.1285357 L141.443339,79.12725 L134.420797,79.12725 L134.420797,43.1285357 L129,43.1285357 L129,37.5212679 L134.420797,37.5212679 L134.420797,34.0350536 C134.420797,29.4878571 135.64183,26.1792321 138.084812,24.1064464 C140.527794,22.0363929 144.369781,21 149.611689,21 L149.611689,26.6081786 C146.558649,26.6081786 144.43308,27.1764643 143.237734,28.3130357 C142.041471,29.4496071 141.443339,31.3575536 141.443339,34.0350536 L141.443339,37.5212679 L150.222664,37.5212679 Z"/>
    <mask id="fundamental-d" fill="#fff">
      <use xlink:href="#fundamental-a"/>
    </mask>
    <use fill="url(#fundamental-b)" xlink:href="#fundamental-a"/>
    <polygon fill="url(#fundamental-c)" fill-opacity=".3" points="20.942 47.499 91.873 17.092 92.009 37.436 109.58 37.46 109.58 131.926 20.892 131.926" mask="url(#fundamental-d)" transform="rotate(-45 65.236 74.509)"/>
    <rect width="20.49" height="73.023" x="79.575" y="43.456" fill="url(#fundamental-e)" fill-opacity=".2" mask="url(#fundamental-d)" transform="rotate(-45 89.82 79.967)"/>
    <g>
      <use fill="#000" filter="url(#fundamental-f)" xlink:href="#fundamental-g"/>
      <use fill="url(#fundamental-h)" xlink:href="#fundamental-g"/>
    </g>
  </g>
</svg>
