<?xml version="1.0" encoding="utf-8"?><svg xmlns="http://www.w3.org/2000/svg" xmlns:xlink="http://www.w3.org/1999/xlink"><symbol id="arrow-down" viewBox="0 0 24 24" xmlns="http://www.w3.org/2000/svg"><style>.ast0{fill:none;stroke:#4a4c54;stroke-width:1.5}</style><title>icn/arrow-right-grey</title><g id="aSymbols"><g id="aicn_x2F_arrow-right-grey"><path id="aStroke-2-Copy-3" class="ast0" d="M3 8l9 8 9-8"/></g></g></symbol><symbol viewBox="0 0 24 24" id="arrow-right-grey" xmlns="http://www.w3.org/2000/svg"><title>icn/arrow-right-grey</title><path d="M8 21l8-9-8-9" stroke-width="1.5" stroke="#4A4C54" fill="none" fill-rule="evenodd"/></symbol><symbol viewBox="0 0 24 24" id="arrow-right-white" xmlns="http://www.w3.org/2000/svg"><title>icn/arrow-right-white</title><path d="M7.218 20.723l1.121.997 8.443-9.499-8.443-9.498-1.121.997 7.557 8.501z" fill-rule="nonzero" fill="#FFF"/></symbol><symbol viewBox="0 0 24 24" id="expand-down" xmlns="http://www.w3.org/2000/svg"><title>icn/expand-down</title><path d="M12.75 11.25V4h-1.5v7.25H4v1.5h7.25V20h1.5v-7.25H20v-1.5h-7.25z" fill-rule="nonzero" fill="#FF4335"/></symbol><symbol viewBox="0 0 24 24" id="expand-down-up" xmlns="http://www.w3.org/2000/svg"><title>icn/expand-down-up</title><path d="M20 11.25H4v1.5h16z" fill-rule="nonzero" fill="#FF4335"/></symbol><symbol viewBox="0 0 34 34" id="footer-mail-us" xmlns="http://www.w3.org/2000/svg"><title>icn/footer-mail-us</title><defs><linearGradient x1="-21.919%" y1="-61.461%" x2="44.106%" y2="43.362%" id="fa"><stop stop-color="#FF7865" offset="0%"/><stop stop-color="#FF4335" offset="100%"/></linearGradient><linearGradient x1="11.672%" y1="11.201%" x2="95.775%" y2="95.732%" id="fd"><stop stop-color="#FFF" offset="0%"/><stop stop-color="#E1E2E1" offset="100%"/></linearGradient><path id="fc" d="M4.966 22.614h17.996v-15H4.966z"/><filter x="-13.9%" y="-16.7%" width="138.9%" height="146.7%" filterUnits="objectBoundingBox" id="fb"><feOffset dx="1" dy="1" in="SourceAlpha" result="shadowOffsetOuter1"/><feGaussianBlur stdDeviation="1" in="shadowOffsetOuter1" result="shadowBlurOuter1"/><feColorMatrix values="0 0 0 0 0 0 0 0 0 0 0 0 0 0 0 0 0 0 0.189085145 0" in="shadowBlurOuter1"/></filter><linearGradient x1="11.672%" y1="11.201%" x2="95.374%" y2="95.33%" id="fe"><stop stop-color="#FF7865" offset="0%"/><stop stop-color="#FF4335" offset="100%"/></linearGradient><path d="M0 18.352V11.23c0-.912.445-1.766 1.191-2.289L13.964 0l12.774 8.942a2.792 2.792 0 0 1 1.191 2.29v14.951a1.8 1.8 0 0 1-1.797 1.802L1.8 28.032c-.994 0-1.8-.807-1.8-1.801v-7.879z" id="ff"/><linearGradient x1="63.771%" y1="48.656%" x2="35.581%" y2="81.019%" id="fg"><stop stop-color="#EEE" offset="0%"/><stop stop-color="#D8D8D8" offset="100%"/></linearGradient></defs><g transform="translate(3 3)" fill="none" fill-rule="evenodd"><path d="M2.793 27.628A2.793 2.793 0 0 1 0 24.834V11.23c0-.912.445-1.766 1.191-2.289L13.964 0l12.774 8.942a2.792 2.792 0 0 1 1.191 2.29v13.603a2.794 2.794 0 0 1-2.793 2.794H2.793z" fill="url(#fa)"/><use fill="#000" filter="url(#fb)" xlink:href="#fc"/><use fill="url(#fd)" xlink:href="#fc"/><path d="M1.8 28.032c-.994 0-1.8-.807-1.8-1.801V11.869l13.964 9.078L27.93 11.87v14.313a1.8 1.8 0 0 1-1.797 1.8L1.8 28.033z" fill="url(#fe)"/><path d="M8 13v-1h13v1H8zm0 2v-1h8v1H8z" fill="#4A4C54"/><g><mask id="fh" fill="#fff"><use xlink:href="#ff"/></mask><path fill-opacity=".3" fill="url(#fg)" mask="url(#fh)" d="M14 21l11 7h3.5V11.492z"/></g></g></symbol><symbol viewBox="0 0 64 64" id="fundamental-icon" xmlns="http://www.w3.org/2000/svg"><title>logo/fundamental-icon</title><defs><linearGradient x1="0%" y1="0%" y2="100%" id="gb"><stop stop-color="#FF6155" offset="0%"/><stop stop-color="#EC3022" offset="100%"/></linearGradient><path id="ga" d="M0 64h64V0H0z"/><linearGradient x1="55.123%" y1="0%" x2="55.123%" y2="56.679%" id="gc"><stop offset="0%"/><stop stop-opacity="0" offset="100%"/></linearGradient><linearGradient x1="55.123%" y1="-10.714%" x2="55.123%" y2="39.042%" id="ge"><stop offset="0%"/><stop stop-opacity="0" offset="100%"/></linearGradient><linearGradient x1="282.648%" y1="304.395%" x2="32.86%" y2="47.302%" id="gh"><stop offset="0%"/><stop stop-color="#FFF" offset="100%"/></linearGradient><path d="M46.91 16a6.545 6.545 0 1 1-13.092 0 6.545 6.545 0 0 1 13.091 0zm0 18.182a6.546 6.546 0 1 1-13.092 0 6.546 6.546 0 0 1 13.091 0zM9.454 54.545V9.455h17.818v45.09H9.455z" id="gg"/><filter x="-2.7%" y="-2.2%" width="110.7%" height="108.9%" filterUnits="objectBoundingBox" id="gf"><feOffset dx="1" dy="1" in="SourceAlpha" result="shadowOffsetOuter1"/><feGaussianBlur stdDeviation=".5" in="shadowOffsetOuter1" result="shadowBlurOuter1"/><feColorMatrix values="0 0 0 0 0 0 0 0 0 0 0 0 0 0 0 0 0 0 0.15 0" in="shadowBlurOuter1"/></filter></defs><g fill="none" fill-rule="evenodd"><mask id="gd" fill="#fff"><use xlink:href="#ga"/></mask><use fill="url(#gb)" xlink:href="#ga"/><path fill-opacity=".3" fill="url(#gc)" mask="url(#gd)" transform="rotate(-45 40.932 46.75)" d="M13.14 29.804l44.506-19.08.085 12.765 11.025.015v59.273H13.109z"/><path fill-opacity=".2" fill="url(#ge)" mask="url(#gd)" transform="rotate(-45 56.357 50.176)" d="M49.929 27.266h12.856v45.818H49.929z"/><g><use fill="#000" filter="url(#gf)" xlink:href="#gg"/><use fill="url(#gh)" xlink:href="#gg"/></g></g></symbol><symbol viewBox="0 0 24 24" id="new-window" xmlns="http://www.w3.org/2000/svg"><title>icn/new-window</title><g fill-rule="nonzero" fill="#FF4335"><path d="M5.5 5.5v13h13v-13h-13zM4 4h16v16H4V4z"/><path d="M4.25 8.5h14.53V7H4.25zM12.619 12.65l.103 2.725 1.516.054-.204-5.395-5.31-.106.082 1.517 2.745.054-6.989 6.99 1.109 1.109 6.948-6.948z"/></g></symbol><symbol viewBox="0 0 24 24" id="raidio-check" xmlns="http://www.w3.org/2000/svg"><title>icn/raidio-check</title><g fill="none" fill-rule="evenodd"><path d="M12 19.625a7.625 7.625 0 1 0 0-15.25 7.625 7.625 0 0 0 0 15.25z" fill="#FFF"/><path d="M12 20.75a8.75 8.75 0 1 1 0-17.5 8.75 8.75 0 0 1 0 17.5zm0-1.5a7.25 7.25 0 1 0 0-14.5 7.25 7.25 0 0 0 0 14.5z" fill="#FF4335" fill-rule="nonzero"/><path fill="#FF4335" fill-rule="nonzero" d="M15.86 8l-5.465 5.648-2.256-2.322L7 12.502 10.397 16 17 9.176z"/></g></symbol><symbol viewBox="0 0 24 24" id="raidio-off" xmlns="http://www.w3.org/2000/svg"><title>icn/raidio-off</title><g fill="none" fill-rule="evenodd"><path d="M12 19.25a7.25 7.25 0 1 0 0-14.5 7.25 7.25 0 0 0 0 14.5z" fill="#FFF"/><path d="M12 20.75a8.75 8.75 0 1 1 0-17.5 8.75 8.75 0 0 1 0 17.5zm0-1.5a7.25 7.25 0 1 0 0-14.5 7.25 7.25 0 0 0 0 14.5z" fill="#DFDFDF" fill-rule="nonzero"/></g></symbol><symbol viewBox="0 0 24 24" id="raidio-on" xmlns="http://www.w3.org/2000/svg"><title>icn/raidio-on</title><g fill="none" fill-rule="evenodd"><circle stroke="#FF4335" stroke-width="1.5" fill="#FFF" cx="12" cy="12" r="8"/><circle fill="#FF4335" cx="12" cy="12" r="3"/></g></symbol><symbol viewBox="0 0 16 16" id="search" xmlns="http://www.w3.org/2000/svg"><title>icn/search</title><path d="M6.381 0C2.853 0 0 2.788 0 6.235c0 3.447 2.853 6.235 6.381 6.235 1.26 0 2.425-.361 3.414-.974L14.405 16 16 14.441l-4.551-4.435a6.1 6.1 0 0 0 1.313-3.771C12.762 2.788 9.91 0 6.382 0zm0 1.467c2.703 0 4.88 2.128 4.88 4.768 0 2.64-2.177 4.768-4.88 4.768-2.702 0-4.88-2.128-4.88-4.768 0-2.64 2.178-4.768 4.88-4.768z" fill-rule="nonzero" fill="#FF4335"/></symbol><symbol viewBox="0 0 30 30" id="services-newsletter" xmlns="http://www.w3.org/2000/svg"><title>icn/services-newsletter</title><path d="M4 23h22V7H4v16zM5.833 8.777h18.334v1.945L15 15.167l-9.167-4.445V8.777zm0 3.945l8.766 4.222.401.195.401-.195 8.766-4.222v8.5H5.833v-8.5z" fill="#FF4335" fill-rule="evenodd"/></symbol><symbol viewBox="0 0 24 24" id="up" xmlns="http://www.w3.org/2000/svg"><title>icn/up</title><g stroke="#FF4335" stroke-width="1.5" fill="none" fill-rule="evenodd"><circle fill="#FFF" cx="12" cy="12" r="8"/><path d="M16 12H8"/></g></symbol></svg>